<svg id="Bell_icon" data-name="Bell icon" xmlns="http://www.w3.org/2000/svg" width="19.605" height="24.36" viewBox="0 0 19.605 24.36">
  <path id="Path_2" data-name="Path 2" d="M320.715,76.65c-.052-1.267-.028-2.537-.053-3.805a9.267,9.267,0,0,0-.1-1.27,6.573,6.573,0,0,0-6.421-5.409,6.573,6.573,0,0,1,6.42,5.409,9.3,9.3,0,0,1,.1,1.27c.025,1.268,0,2.538.052,3.805a15.255,15.255,0,0,0,1.024,4.77c.033.086.064.173.107.29h0c-.043-.117-.074-.2-.107-.29A15.249,15.249,0,0,1,320.715,76.65Z" transform="translate(-304.324 -62.094)" fill="none"/>
  <path id="Path_3" data-name="Path 3" d="M299.206,198.231a2.363,2.363,0,0,0,2.267-1.706h-4.533A2.363,2.363,0,0,0,299.206,198.231Z" transform="translate(-289.403 -175.175)" fill="none"/>
  <path id="Path_4" data-name="Path 4" d="M259.556,55.41a15,15,0,0,1-1.5-6.687c.005-1.124.041-2.252-.047-3.37A8.085,8.085,0,0,0,252.07,38.2c-.447-.123-.907-.2-1.376-.3,0-.552.008-1.1,0-1.657a.811.811,0,0,0-1.607-.153,1.648,1.648,0,0,0-.019.33c0,.5,0,1,0,1.425a19.206,19.206,0,0,0-2.261.667,7.892,7.892,0,0,0-5.04,6.788,31.406,31.406,0,0,0-.056,3.445,15.048,15.048,0,0,1-1.5,6.663.827.827,0,0,0,.818,1.285h5.236a3.687,3.687,0,0,1-.042-.556v-.652h7.324v.652a3.67,3.67,0,0,1-.042.556h5.234A.827.827,0,0,0,259.556,55.41Zm-1.953-.351H242.165c.142-.42.286-.825.416-1.235a16.249,16.249,0,0,0,.75-4.875c0-.928,0-1.857,0-2.785a6.534,6.534,0,0,1,5.24-6.508,6.133,6.133,0,0,1,1.324-.141,6.573,6.573,0,0,1,6.421,5.409,9.272,9.272,0,0,1,.1,1.27c.025,1.268,0,2.538.053,3.805a15.248,15.248,0,0,0,1.024,4.77c.032.086.064.173.107.29Z" transform="translate(-240.082 -35.442)"/>
  <path id="Path_6" data-name="Path 6" d="M293.736,186.689h-7.324v.652a3.662,3.662,0,1,0,7.324,0Zm-3.662,3.01a2.363,2.363,0,0,1-2.267-1.706h4.533A2.363,2.363,0,0,1,290.074,189.7Z" transform="translate(-280.271 -166.643)"/>
  <path id="Path_7" data-name="Path 7" d="M242.053,56.914a.562.562,0,0,0,.071,0,.53.53,0,0,0,.525-.46c.63-4.7,3.395-4.9,3.523-4.91a.53.53,0,0,0-.04-1.06c-.154.005-3.777.193-4.534,5.829A.53.53,0,0,0,242.053,56.914Z" transform="translate(-241.393 -48.494)"/>
</svg>
