<svg xmlns="http://www.w3.org/2000/svg" width="48.508" height="48.957" viewBox="0 0 48.508 48.957">
  <g id="google_icon-icons.com_62798" transform="translate(-8.398 -6.185)">
    <path id="패스_35" data-name="패스 35" d="M32.637,55.142A24.481,24.481,0,1,1,56.9,30.855,24.346,24.346,0,0,1,32.637,55.142ZM32.7,8.109A22.556,22.556,0,1,0,54.982,30.855,22.416,22.416,0,0,0,32.7,8.109Z" transform="translate(0 0)" fill="#4486f3"/>
    <path id="패스_36" data-name="패스 36" d="M109.8,91.378a13.7,13.7,0,0,1,2.361-3.62,16.77,16.77,0,0,1,14.471-5.874,16.5,16.5,0,0,1,9.475,3.932c.224.185.3.3.049.546-1.464,1.434-2.908,2.879-4.352,4.342-.254.254-.4.332-.742.068A10.071,10.071,0,0,0,115.7,95.261c-.059.156-.117.3-.185.449C113.615,94.276,111.7,92.832,109.8,91.378Z" transform="translate(-91.508 -68.261)" fill="#e94436"/>
    <path id="패스_37" data-name="패스 37" d="M115.528,289.6a9.747,9.747,0,0,0,3.981,5.211,10.6,10.6,0,0,0,11.026.41c.117-.059.224-.117.342-.185,1.766,1.444,3.581,2.83,5.406,4.206A14.424,14.424,0,0,1,129.345,303a16.86,16.86,0,0,1-16.227-4.381,14.163,14.163,0,0,1-3.318-4.645Q112.654,291.776,115.528,289.6Z" transform="translate(-91.508 -255.759)" fill="#35a853"/>
    <path id="패스_38" data-name="패스 38" d="M278.137,240.754c-1.825-1.376-3.63-2.762-5.406-4.206a7.96,7.96,0,0,0,3.288-4.508c.166-.6.176-.6-.439-.6-2.683,0-5.367-.01-8.041.01-.468,0-.556-.137-.546-.566.02-1.874.02-3.737,0-5.611,0-.351.078-.468.449-.468q7.538.015,15.066,0c.312,0,.449.068.517.41a17.715,17.715,0,0,1-.576,8.655,15.434,15.434,0,0,1-3.913,6.538C278.41,240.54,278.264,240.637,278.137,240.754Z" transform="translate(-233.362 -197.283)" fill="#4285f3"/>
    <path id="패스_39" data-name="패스 39" d="M99.218,190.424c-1.913,1.454-3.815,2.908-5.728,4.362a15.579,15.579,0,0,1-1.552-4.879,17.235,17.235,0,0,1,1.4-9.963,1.294,1.294,0,0,1,.156-.244c1.913,1.444,3.815,2.9,5.728,4.342A10.627,10.627,0,0,0,99.218,190.424Z" transform="translate(-75.198 -156.583)" fill="#fabb06"/>
  </g>
</svg>
