<svg xmlns="http://www.w3.org/2000/svg" width="20" height="20" viewBox="0 0 20 20">
  <g id="warning_icon" transform="translate(-14.292 -14.292)">
    <g id="Layer_2" data-name="Layer 2" transform="translate(14.292 14.292)">
      <path id="패스_52" data-name="패스 52" d="M15.462,16.922a.791.791,0,0,1-.791-.6l-1.195-4.8a1.978,1.978,0,0,1,.4-1.725,2.026,2.026,0,0,1,3.166,0,1.978,1.978,0,0,1,.364,1.733L16.253,16.32A.791.791,0,0,1,15.462,16.922Zm0-6.331a.427.427,0,0,0-.348.174.412.412,0,0,0-.079.38l.427,1.725.427-1.725a.412.412,0,0,0-.079-.38A.427.427,0,0,0,15.462,10.591Z" transform="translate(-5.462 -4.476)" fill="#b2821d"/>
      <circle id="타원_3" data-name="타원 3" cx="1.187" cy="1.187" r="1.187" transform="translate(8.813 13.028)" fill="#b2821d"/>
      <path id="패스_53" data-name="패스 53" d="M13,23A10,10,0,1,1,23,13,10,10,0,0,1,13,23ZM13,4.538A8.462,8.462,0,1,0,21.462,13,8.462,8.462,0,0,0,13,4.538Z" transform="translate(-3 -3)" fill="#b2821d"/>
    </g>
  </g>
</svg>
