<svg xmlns="http://www.w3.org/2000/svg" width="105.086" height="32" viewBox="0 0 105.086 32">
  <g id="그룹_6" data-name="그룹 6" transform="translate(-453.897 -46.182)">
    <path id="패스_8" data-name="패스 8" d="M687.593,206.82a3.076,3.076,0,0,0,.006.639,3.052,3.052,0,0,1-.006-.639c0-.392-.009-.783,0-1.175C687.584,206.036,687.593,206.428,687.593,206.82Z" transform="translate(-200.387 -136.744)" fill="#2b2b2b"/>
    <path id="패스_9" data-name="패스 9" d="M771.314,57.73l-4.3-2.964-8.124,10.922-.195-.092V46.212c-.259.016-.445.011-.625.042-1.426.246-2.844.547-4.278.727-.667.084-.771.362-.77.951q.024,14.352.012,28.705v.779H758.7V67.422l.187-.074,8.883,10.859,4.341-3.385-7.366-8.736Z" transform="translate(-256.507 -0.026)" fill="#2b2b2b"/>
    <path id="패스_10" data-name="패스 10" d="M466.213,66.817a.959.959,0,0,1-.013-1.534c.754-.851,1.425-1.776,2.13-2.671,1.273-1.617,2.545-3.236,3.86-4.907l-4.3-2.968-8.127,10.924-.193-.092V46.182c-.257.016-.444.01-.624.041-1.449.25-2.891.545-4.346.745-.6.082-.706.337-.705.876q.021,14.422.013,28.845c0,.228.028.455.043.691h5.677V67.162l9.015,11.02,4.316-3.371c-.227-.284-.4-.506-.575-.72C470.335,71.661,468.305,69.212,466.213,66.817Z" fill="#2b2b2b"/>
    <path id="패스_11" data-name="패스 11" d="M1062.268,112.254a10.461,10.461,0,0,0-7.2-1.659,8.937,8.937,0,0,0-7.592,4.923,14.2,14.2,0,0,0-.447,12.121,8.434,8.434,0,0,0,5.482,5.027,12,12,0,0,0,6.945.173,8.856,8.856,0,0,0,6.182-5.419,14.185,14.185,0,0,0,.991-5.36c-.078-.9-.107-1.8-.245-2.688A10.07,10.07,0,0,0,1062.268,112.254Zm-2.217,14.162a3.63,3.63,0,0,1-3.728,2.424,3.751,3.751,0,0,1-3.8-2.329,15.927,15.927,0,0,1-.9-4.559,40.22,40.22,0,0,1,.848-4.222,4,4,0,0,1,7.621-.029A13.132,13.132,0,0,1,1060.052,126.416Z" transform="translate(-507.648 -55.179)" fill="#2b2b2b"/>
    <path id="패스_12" data-name="패스 12" d="M618.562,116.957a6.833,6.833,0,0,0-5.4-6.137,13.6,13.6,0,0,0-8.372.739c-.886.354-1.723.829-2.586,1.251l1.593,3.826c.29-.117.486-.2.683-.277a14,14,0,0,1,5.473-1.1,3.207,3.207,0,0,1,3.486,3.459c.014.611-.142.818-.787.82a49.711,49.711,0,0,0-5.115.171c-4.312.457-6.643,3.168-6.435,7.337.155,3.1,1.848,5.3,4.6,5.936a7.845,7.845,0,0,0,4.761-.3c1.242-.5,2.425-1.15,3.7-1.766a6.543,6.543,0,0,1,.311.94c.107.583.417.757.994.721a21.611,21.611,0,0,1,2.49,0c.584.031.772-.147.768-.75-.025-3.987,0-7.974-.019-11.961A27.427,27.427,0,0,0,618.562,116.957Zm-6.428,10.986a16.863,16.863,0,0,1-3.353.813,2.075,2.075,0,0,1-2.446-1.491,2.844,2.844,0,0,1,1.139-3.375,9.788,9.788,0,0,1,2.779-.744,22.629,22.629,0,0,1,2.63-.044c.393-.01.564.128.547.533-.005.13-.008.261-.01.391,0,.391,0,.783,0,1.175a3.044,3.044,0,0,0,.006.639A1.665,1.665,0,0,1,612.134,127.944Z" transform="translate(-126.219 -55.125)" fill="#2b2b2b"/>
    <path id="패스_13" data-name="패스 13" d="M914.007,111.567a9.482,9.482,0,0,0-3.988-.938,14.552,14.552,0,0,0-8.1,2.047c-.193.114-.449.458-.4.593.435,1.173.933,2.323,1.421,3.5.374-.151.678-.283.988-.4a13.689,13.689,0,0,1,5.143-.98,3.232,3.232,0,0,1,3.52,3.509c.018.605-.185.76-.766.766-1.707.017-3.423,0-5.117.171-4.289.445-6.623,3.113-6.467,7.248a6.022,6.022,0,0,0,6.346,6.238,10.406,10.406,0,0,0,5.812-1.859c.27-.17.539-.343.861-.548.181.524.3.956.484,1.365.072.164.263.387.405.391,1.2.031,2.41.018,3.676.018,0-5.039.094-9.954-.037-14.863A6.776,6.776,0,0,0,914.007,111.567Zm-2.49,16.414a8.038,8.038,0,0,1-3.473.936c-1.38.03-2.252-.484-2.553-1.488a2.943,2.943,0,0,1,1.108-3.405,5.1,5.1,0,0,1,1.927-.655c1.175-.13,2.367-.092,3.552-.134.358-.013.522.123.51.5-.017.522,0,1.044,0,1.566h0a4.479,4.479,0,0,0,.008.853C912.782,127.1,912.287,127.593,911.517,127.981Z" transform="translate(-382.749 -55.255)" fill="#2b2b2b"/>
  </g>
</svg>
