<svg id="그룹_7" data-name="그룹 7" xmlns="http://www.w3.org/2000/svg" width="108.409" height="20.728" viewBox="0 0 108.409 20.728">
  <path id="패스_14" data-name="패스 14" d="M24.738,743.14c-.006,1.529-.017,3.057-.018,4.586q0,7.744,0,15.487v.643H24.09c-1.734,0-3.469-.013-5.2.009a.97.97,0,0,1-.924-.469q-3.487-5.04-7.011-10.055c-.1-.144-.208-.282-.395-.534v11.012H3.815V743.14h6.5a3.121,3.121,0,0,0,.209.418q3.582,5.137,7.171,10.269c.066.094.147.177.317.379V743.14Z" transform="translate(-3.815 -743.14)" fill="#2b2b2b"/>
  <path id="패스_15" data-name="패스 15" d="M840.359,763.866c-2.147,0-4.295-.017-6.442,0a.829.829,0,0,1-.786-.421c-1.127-1.669-2.279-3.322-3.407-4.99a.767.767,0,0,0-.746-.4c-.607.029-1.217.008-1.87.008v5.755h-6.492c-.011-.152-.031-.307-.031-.463q0-9.894,0-19.788a4.073,4.073,0,0,1,.043-.424h10.3c.211.036.424.062.632.111a32.173,32.173,0,0,1,3.715.907,5.629,5.629,0,0,1,3.746,3.96,10.067,10.067,0,0,1,.316,2.928,5.79,5.79,0,0,1-3.844,5.542c-.114.045-.223.105-.361.171a2.813,2.813,0,0,0,.144.246q2.407,3.256,4.819,6.509a1.9,1.9,0,0,0,.265.245Zm-13.315-15.433v4.351c1.271,0,2.5.041,3.719-.012a2.172,2.172,0,0,0,.088-4.323C829.6,748.381,828.335,748.433,827.044,748.433Z" transform="translate(-731.95 -743.14)" fill="#2b2b2b"/>
  <path id="패스_16" data-name="패스 16" d="M655.332,743.14V748.2h-9.5v2.814h9.413v4.973h-9.416v2.783h9.7v5.061H639.179V743.14Z" transform="translate(-570.231 -743.14)" fill="#2b2b2b"/>
  <path id="패스_17" data-name="패스 17" d="M231.83,743.14c.509,1.34,1,2.684,1.529,4.018q3.172,8.071,6.357,16.138c.064.163.111.333.186.56h-2.959c-1.156,0-2.311-.012-3.466.008a.531.531,0,0,1-.623-.424c-.2-.651-.465-1.283-.679-1.93a.477.477,0,0,0-.528-.4q-3.521.021-7.041,0a.48.48,0,0,0-.547.377c-.224.682-.459,1.362-.731,2.026a.614.614,0,0,1-.44.328c-2.166.021-4.332.014-6.593.014l8.164-20.716Zm-1.384,13-2.333-6.484-2.324,6.484Z" transform="translate(-193.236 -743.14)" fill="#2b2b2b"/>
  <path id="패스_18" data-name="패스 18" d="M425.05,743.14,418.7,759.292c-.532,1.354-1.075,2.705-1.587,4.067a.658.658,0,0,1-.735.509q-3.143-.039-6.287,0a.659.659,0,0,1-.731-.512q-3.961-10.113-7.946-20.216h6.938q2.039,5.7,4.078,11.4c.25.7.5,1.4.8,2.22.11-.283.175-.439.232-.6.676-1.873,1.355-3.744,2.024-5.619q1.319-3.7,2.625-7.4Z" transform="translate(-358.27 -743.14)" fill="#2b2b2b"/>
</svg>
