<svg xmlns="http://www.w3.org/2000/svg" viewBox="0 0 365.26 161.81"><defs><style>.cls-1{fill:none;}.cls-2{fill:#f7fcf9;}.cls-3{fill:#a4f4c4;}</style></defs><g id="Layer_2" data-name="Layer 2"><g id="Layer_1-2" data-name="Layer 1"><path class="cls-1" d="M182.39,93.06a18.36,18.36,0,0,0-14.65,6.85Q162,106.77,162,119.8q0,12.09,5,18.34a15.7,15.7,0,0,0,12.89,6.25,17.63,17.63,0,0,0,14.32-6.85q5.57-6.85,5.57-19.89,0-12.09-4.84-18.34A15.08,15.08,0,0,0,182.39,93.06Z"/><path class="cls-1" d="M102.89,93.06a18.35,18.35,0,0,0-14.65,6.85q-5.77,6.86-5.78,19.89,0,12.09,5,18.34a15.73,15.73,0,0,0,12.9,6.25,17.6,17.6,0,0,0,14.31-6.85q5.58-6.85,5.58-19.89,0-12.09-4.84-18.34A15.08,15.08,0,0,0,102.89,93.06Z"/><path class="cls-2" d="M192.81,23,360.08,62.94l2.74-14c.79-4.1-1.48-8.11-5.07-9L192.93.63a22.92,22.92,0,0,0-10.83,0L5.33,44.19c-3.61.89-5.93,4.93-5.19,9l2.59,14L182,23A22.92,22.92,0,0,1,192.81,23Z"/><path class="cls-3" d="M67.59,76.26l-64.23,6v18.61l21.37-1.48v59.73H36.15A7.81,7.81,0,0,0,42,156.75,8,8,0,0,0,44.35,151V97.83l23.24-1.62Z"/><path class="cls-3" d="M127.74,80.7a36.57,36.57,0,0,0-18.07-4.44c-1.17,0-2.92.09-5.24.27a42.55,42.55,0,0,0-18.75,6.65,37.7,37.7,0,0,0-13,15q-4.77,9.54-4.77,22.71t4.77,22a31.87,31.87,0,0,0,13,13.51,38.57,38.57,0,0,0,18.75,4.5,42.48,42.48,0,0,0,20.49-5,36,36,0,0,0,14.64-15Q145,130.82,145,116.44q0-13.31-4.64-22.3A31.09,31.09,0,0,0,127.74,80.7Zm-9.54,56.84a17.63,17.63,0,0,1-14.31,6.85A15.7,15.7,0,0,1,91,138.14q-5-6.24-5-18.34,0-13,5.78-19.89a18.34,18.34,0,0,1,14.64-6.85,15.1,15.1,0,0,1,12.5,6.25q4.83,6.24,4.84,18.34Q123.78,130.69,118.2,137.54Z"/><path class="cls-3" d="M207.24,80.7a36.57,36.57,0,0,0-18.07-4.44c-1.17,0-2.91.09-5.24.27a42.55,42.55,0,0,0-18.75,6.65,37.7,37.7,0,0,0-13,15q-4.77,9.54-4.77,22.71t4.77,22a31.87,31.87,0,0,0,13,13.51,38.57,38.57,0,0,0,18.75,4.5,42.48,42.48,0,0,0,20.49-5,36.08,36.08,0,0,0,14.65-15q5.43-10.08,5.44-24.46,0-13.31-4.64-22.3A31.09,31.09,0,0,0,207.24,80.7Zm-9.54,56.84a17.63,17.63,0,0,1-14.31,6.85,15.7,15.7,0,0,1-12.9-6.25q-5-6.24-5-18.34,0-13,5.78-19.89a18.34,18.34,0,0,1,14.64-6.85,15.1,15.1,0,0,1,12.5,6.25q4.84,6.24,4.84,18.34Q203.28,130.69,197.7,137.54Z"/><path class="cls-3" d="M276.67,79.62a9.14,9.14,0,0,0-2.36,6.18V126L246.1,80.43l-18.41,1.88v77H246.1V113L274,159.31h21.1v-84l-12.63,1.35A8.33,8.33,0,0,0,276.67,79.62Z"/><path class="cls-3" d="M365.23,130.82a21.34,21.34,0,0,0-2.35-8.67,25.93,25.93,0,0,0-16.6-13.37,76,76,0,0,0-11.69-2.28,62.29,62.29,0,0,1-6.11-1.21,6.75,6.75,0,0,1-3.29-2A4.7,4.7,0,0,1,324,99.78a8.25,8.25,0,0,1,1.27-4.37,6.7,6.7,0,0,1,3.43-2.89,19.2,19.2,0,0,1,7.25-1.47q7.94,0,14.65,6.58l12-13.17a33.1,33.1,0,0,0-9.81-7A28.63,28.63,0,0,0,340,74.52a21.92,21.92,0,0,0-2.83.13q-10.87,1.08-17.67,4.84a31.94,31.94,0,0,0-11.08,10.08,21.11,21.11,0,0,0-3.5,12.22,21.73,21.73,0,0,0,1.95,9.21,17.07,17.07,0,0,0,6.12,7,39,39,0,0,0,12.23,5.51l5.37,1.35a54.1,54.1,0,0,1,6.25,1.54,21.53,21.53,0,0,1,3.83,1.68,17.38,17.38,0,0,1,3,3,5.76,5.76,0,0,1,1.14,3.63,9.62,9.62,0,0,1-1.07,4.3,6.75,6.75,0,0,1-3.7,3.36,15.48,15.48,0,0,1-6.25,1.2,19.85,19.85,0,0,1-8.19-1.74,39.88,39.88,0,0,1-7.12-4,8.06,8.06,0,0,0-5-1.62,8.82,8.82,0,0,0-3.76.81,7.63,7.63,0,0,0-3,2.42L301.4,146a34.77,34.77,0,0,0,6.65,6.52,47.44,47.44,0,0,0,12.23,6.79,37.75,37.75,0,0,0,16.33,2.42q18-.94,23.51-10.62A37.46,37.46,0,0,0,365.23,130.82Z"/></g></g></svg>