<svg id="kakaotalk_logo_icon_147272" xmlns="http://www.w3.org/2000/svg" width="48" height="48" viewBox="0 0 48 48">
  <path id="패스_40" data-name="패스 40" d="M0,24A24,24,0,1,1,24,48,24,24,0,0,1,0,24Z" fill="#ffe812"/>
  <path id="패스_41" data-name="패스 41" d="M24,11C15.163,11,8,16.648,8,23.615c0,4.5,2.995,8.457,7.5,10.689-.245.845-1.575,5.438-1.628,5.8,0,0-.032.271.144.374a.483.483,0,0,0,.382.023c.5-.07,5.837-3.817,6.761-4.468a20.272,20.272,0,0,0,2.842.2c8.837,0,16-5.648,16-12.615S32.837,11,24,11Z" fill="#381f1f"/>
  <path id="패스_42" data-name="패스 42" d="M15.154,28.019a.9.9,0,0,1-.923-.882V21.654H12.79a.9.9,0,1,1,0-1.808h4.727a.9.9,0,1,1,0,1.808h-1.44v5.484A.9.9,0,0,1,15.154,28.019Zm8.094-.012a.757.757,0,0,1-.768-.408l-.457-1.2H19.208l-.457,1.2a.757.757,0,0,1-.768.407,1.409,1.409,0,0,1-.587-.127c-.254-.117-.5-.44-.219-1.311l2.208-5.812a1.286,1.286,0,0,1,2.461,0l2.207,5.809c.281.873.036,1.2-.218,1.313A1.412,1.412,0,0,1,23.248,28.007Zm-2.633-5.859.922,2.619H19.693Zm4.923,5.736a.867.867,0,0,1-.885-.846V20.769a.943.943,0,0,1,1.885,0v5.423H28.5a.847.847,0,1,1,0,1.692Zm4.205-.8a.923.923,0,0,0,1.846,0V25.07l.32-.32,2.165,2.868a.923.923,0,1,0,1.473-1.112L33.277,23.5l2.1-2.1a.719.719,0,0,0,.2-.562.935.935,0,0,0-.907-.858.716.716,0,0,0-.512.205L31.59,22.753V20.769a.923.923,0,0,0-1.846,0Z" fill="#ffe812" fill-rule="evenodd"/>
</svg>
