<svg xmlns="http://www.w3.org/2000/svg" width="69.437" height="15.591" viewBox="0 0 69.437 15.591">
  <path id="패스_44" data-name="패스 44" d="M11.952-14.04v2.928L7.8-10.824V-.7A1.429,1.429,0,0,1,7.38.336,1.4,1.4,0,0,1,6.336.768H4.3v-11.3L.48-10.272V-12.96ZM19.584-1.872A3.148,3.148,0,0,0,22.14-3.1a5.511,5.511,0,0,0,1-3.552,5.28,5.28,0,0,0-.864-3.276A2.7,2.7,0,0,0,20.04-11.04a3.274,3.274,0,0,0-2.616,1.224,5.375,5.375,0,0,0-1.032,3.552,5.175,5.175,0,0,0,.888,3.276A2.809,2.809,0,0,0,19.584-1.872Zm-6.432-4.2A8.976,8.976,0,0,1,14-10.128,6.729,6.729,0,0,1,16.332-12.8a7.572,7.572,0,0,1,3.348-1.188q.624-.048.936-.048a6.542,6.542,0,0,1,3.228.792,5.567,5.567,0,0,1,2.256,2.4,8.64,8.64,0,0,1,.828,3.984A9.083,9.083,0,0,1,25.956-2.5,6.43,6.43,0,0,1,23.34.192a7.576,7.576,0,0,1-3.66.888,6.884,6.884,0,0,1-3.348-.8A5.7,5.7,0,0,1,14-2.136,8.322,8.322,0,0,1,13.152-6.072ZM34.8-1.872A3.148,3.148,0,0,0,37.356-3.1a5.511,5.511,0,0,0,1-3.552,5.28,5.28,0,0,0-.864-3.276,2.7,2.7,0,0,0-2.232-1.116A3.274,3.274,0,0,0,32.64-9.816a5.375,5.375,0,0,0-1.032,3.552A5.175,5.175,0,0,0,32.5-2.988,2.809,2.809,0,0,0,34.8-1.872Zm-6.432-4.2a8.976,8.976,0,0,1,.852-4.056A6.729,6.729,0,0,1,31.548-12.8,7.572,7.572,0,0,1,34.9-13.992q.624-.048.936-.048a6.542,6.542,0,0,1,3.228.792,5.567,5.567,0,0,1,2.256,2.4,8.64,8.64,0,0,1,.828,3.984A9.082,9.082,0,0,1,41.172-2.5,6.43,6.43,0,0,1,38.556.192a7.576,7.576,0,0,1-3.66.888,6.884,6.884,0,0,1-3.348-.8A5.7,5.7,0,0,1,29.22-2.136,8.322,8.322,0,0,1,28.368-6.072Zm24.024-6.264a1.627,1.627,0,0,1,.42-1.1,1.493,1.493,0,0,1,1.044-.528l2.256-.24v15H52.344l-4.992-8.28V.792H44.064V-12.96l3.288-.336,5.04,8.136ZM69.912-4.3A6.688,6.688,0,0,1,69-.672q-.984,1.728-4.2,1.9A6.719,6.719,0,0,1,61.884.792,8.453,8.453,0,0,1,59.7-.42a6.3,6.3,0,0,1-1.188-1.164l.96-1.176A1.372,1.372,0,0,1,60-3.192a1.584,1.584,0,0,1,.672-.144,1.44,1.44,0,0,1,.888.288,7.111,7.111,0,0,0,1.272.72,3.539,3.539,0,0,0,1.464.312,2.75,2.75,0,0,0,1.116-.216,1.2,1.2,0,0,0,.66-.6,1.7,1.7,0,0,0,.192-.768,1.028,1.028,0,0,0-.2-.648,3.09,3.09,0,0,0-.54-.528,3.651,3.651,0,0,0-.684-.3,9.81,9.81,0,0,0-1.116-.276l-.96-.24a7,7,0,0,1-2.184-.984,3.051,3.051,0,0,1-1.092-1.26,3.884,3.884,0,0,1-.348-1.644,3.773,3.773,0,0,1,.624-2.184,5.708,5.708,0,0,1,1.98-1.8,8.177,8.177,0,0,1,3.156-.864,3.878,3.878,0,0,1,.5-.024,5.124,5.124,0,0,1,2.28.516,5.932,5.932,0,0,1,1.752,1.26L67.3-10.224A3.679,3.679,0,0,0,64.68-11.4a3.412,3.412,0,0,0-1.3.264,1.2,1.2,0,0,0-.612.516,1.47,1.47,0,0,0-.228.78.845.845,0,0,0,.216.624,1.215,1.215,0,0,0,.588.36q.348.1,1.092.216a13.418,13.418,0,0,1,2.088.408A4.6,4.6,0,0,1,68.34-7.3a4.576,4.576,0,0,1,1.152,1.452A3.781,3.781,0,0,1,69.912-4.3Z" transform="translate(-0.48 14.352)" fill="#2b2b2b"/>
</svg>
